<?xml version="1.0" standalone="no"?>
<!DOCTYPE svg PUBLIC "-//W3C//DTD SVG 20010904//EN"
 "http://www.w3.org/TR/2001/REC-SVG-20010904/DTD/svg10.dtd">
<svg version="1.0" xmlns="http://www.w3.org/2000/svg"
 width="1254.000000pt" height="1254.000000pt" viewBox="0 0 1254.000000 1254.000000"
 preserveAspectRatio="xMidYMid meet">
<metadata>
Created by potrace 1.14, written by Peter Selinger 2001-2017
</metadata>
<g transform="translate(0.000000,1254.000000) scale(0.100000,-0.100000)"
fill="#000000" stroke="none">
<path d="M5197 10479 c-9 -6 -17 -7 -17 -3 0 3 -7 1 -15 -6 -8 -7 -12 -16 -9
-22 3 -5 2 -17 -2 -26 -4 -9 -8 -50 -9 -89 -1 -40 -4 -76 -8 -79 -3 -4 -2 -14
3 -24 5 -10 6 -20 3 -24 -11 -11 -12 -35 -2 -42 5 -3 6 -11 2 -17 -10 -17 -13
-37 -4 -37 4 0 7 -9 7 -20 0 -11 -3 -20 -7 -20 -10 0 -6 -34 5 -41 4 -4 3 -16
-3 -28 -8 -15 -9 -21 -1 -21 6 0 8 -5 3 -12 -11 -19 -12 -37 -2 -44 5 -3 6
-11 2 -17 -10 -17 -13 -37 -4 -37 4 0 7 -9 7 -20 0 -11 -3 -20 -7 -20 -10 0
-6 -34 5 -41 4 -4 3 -16 -3 -28 -8 -15 -9 -21 -1 -21 6 0 8 -5 3 -12 -11 -19
-12 -37 -2 -44 6 -3 5 -12 -3 -22 -11 -13 -11 -14 2 -7 9 5 7 -1 -5 -15 -11
-13 -14 -20 -7 -16 7 4 12 1 12 -9 0 -10 -5 -13 -12 -9 -10 6 -10 5 -1 -8 7
-8 10 -17 8 -20 -3 -3 -1 -18 5 -33 9 -25 9 -27 -5 -15 -14 12 -14 10 -5 -14
13 -35 13 -39 -2 -30 -10 6 -10 5 -1 -8 7 -8 10 -17 8 -20 -3 -3 -1 -18 5 -33
9 -25 9 -27 -5 -15 -14 12 -14 10 -5 -14 13 -35 13 -39 -2 -30 -10 6 -10 5 -1
-8 7 -8 10 -17 8 -20 -3 -3 -1 -18 5 -33 9 -25 9 -27 -5 -15 -14 12 -14 10 -5
-14 13 -35 13 -39 -2 -30 -10 6 -10 5 -1 -8 7 -8 10 -17 8 -20 -3 -3 -1 -18 5
-33 9 -25 9 -27 -5 -15 -14 12 -14 10 -5 -14 13 -35 13 -39 -2 -30 -10 6 -10
5 -1 -8 7 -8 10 -17 8 -20 -3 -3 -1 -18 5 -33 9 -25 9 -27 -5 -15 -14 12 -14
10 -5 -14 13 -35 13 -39 -2 -30 -10 6 -10 5 -1 -8 7 -8 10 -17 8 -20 -3 -3 -1
-18 5 -33 9 -25 9 -27 -5 -15 -14 12 -14 10 -5 -14 13 -35 13 -39 -2 -30 -10
6 -10 5 -1 -8 7 -8 10 -17 8 -20 -3 -3 -1 -18 5 -33 9 -25 9 -27 -5 -15 -14
12 -14 10 -5 -14 13 -35 13 -39 -2 -30 -10 6 -10 5 -1 -8 7 -8 10 -17 8 -20
-3 -3 -1 -18 5 -33 9 -25 9 -27 -5 -15 -14 12 -14 10 -5 -14 13 -35 13 -39 -2
-30 -10 6 -10 5 -1 -8 7 -8 10 -17 8 -20 -3 -3 -1 -18 5 -33 9 -25 9 -27 -5
-15 -14 12 -14 10 -5 -14 13 -35 13 -39 -2 -30 -10 6 -10 5 -1 -8 7 -8 10 -17
8 -20 -3 -3 -1 -18 5 -33 9 -25 9 -27 -5 -15 -14 12 -14 10 -5 -14 13 -35 13
-39 -2 -30 -10 6 -10 5 -1 -8 7 -8 10 -17 8 -20 -3 -3 -1 -18 5 -33 9 -25 9
-27 -5 -15 -14 12 -14 10 -5 -14 13 -35 13 -39 -2 -30 -10 6 -10 5 -1 -8 7 -8
10 -17 8 -20 -3 -3 -1 -18 5 -33 9 -25 9 -27 -5 -15 -14 12 -14 10 -5 -14 13
-35 13 -39 -2 -30 -10 6 -10 5 -1 -8 7 -8 10 -17 8 -20 -3 -3 -1 -18 5 -33 9
-25 9 -27 -5 -15 -14 12 -14 10 -5 -14 13 -35 13 -39 -2 -30 -10 6 -10 5 -1
-8 7 -8 10 -17 8 -20 -3 -3 -1 -18 5 -33 9 -25 9 -27 -5 -15 -14 12 -14 10 -5
-14 13 -35 13 -39 -2 -30 -10 6 -10 5 -1 -8 7 -8 10 -17 8 -20 -3 -3 -1 -18 5
-33 9 -25 9 -27 -5 -15 -14 12 -14 10 -5 -14 13 -35 13 -39 -2 -30 -10 6 -10
5 -1 -8 7 -8 10 -17 8 -20 -3 -3 -1 -18 5 -33 9 -25 9 -27 -5 -15 -14 12 -14
10 -5 -14 13 -35 13 -39 -2 -30 -10 6 -10 5 -1 -8 7 -8 10 -17 8 -20 -3 -3 -1
-18 5 -33 9 -25 9 -27 -5 -15 -14 12 -14 10 -5 -14 13 -35 13 -39 -2 -30 -10
6 -10 5 -1 -8 7 -8 10 -17 8 -20 -3 -3 -1 -18 5 -33 9 -25 9 -27 -5 -15 -14
12 -14 10 -5 -14 13 -35 13 -39 -2 -30 -7 5 -8 3 -3 -6 14 -22 15 -81 1 -73
-7 4 -7 1 1 -9 7 -8 10 -18 7 -21 -3 -3 -2 -12 2 -19 12 -19 14 -39 3 -32 -5
3 -6 10 -3 16 4 7 2 8 -4 4 -8 -5 -8 -15 -2 -32 13 -33 13 -37 -2 -28 -10 6
-10 5 -1 -8 7 -8 10 -17 8 -20 -3 -3 -1 -18 5 -33 9 -25 9 -27 -5 -15 -14 12
-14 10 -5 -14 13 -35 13 -39 -2 -30 -10 6 -10 5 -1 -8 7 -8 10 -17 8 -20 -3
-3 -1 -18 5 -33 9 -25 9 -27 -5 -15 -14 12 -14 10 -5 -14 13 -35 13 -39 -2
-30 -10 6 -10 5 -1 -8 7 -8 10 -17 8 -20 -3 -3 -1 -18 5 -33 9 -25 9 -27 -5
-15 -14 12 -14 10 -5 -14 13 -35 13 -39 -2 -30 -10 6 -10 5 -1 -8 7 -8 10 -17
8 -20 -3 -3 -1 -18 5 -33 9 -25 9 -27 -5 -15 -14 12 -14 10 -5 -14 13 -35 13
-39 -2 -30 -10 6 -10 5 -1 -8 7 -8 10 -17 8 -20 -3 -3 -1 -18 5 -33 9 -25 9
-27 -5 -15 -14 12 -14 10 -5 -14 13 -35 13 -39 -2 -30 -10 6 -10 5 -1 -8 7 -8
10 -17 8 -20 -3 -3 -1 -18 5 -33 9 -25 9 -27 -5 -15 -14 12 -14 10 -5 -14 13
-35 13 -39 -2 -30 -10 6 -10 5 -1 -8 7 -8 10 -17 8 -20 -3 -3 -1 -18 5 -33 9
-25 9 -27 -5 -15 -14 12 -14 10 -5 -14 13 -35 13 -39 -2 -30 -10 6 -10 5 -1
-8 7 -8 10 -17 8 -20 -3 -3 -1 -18 5 -33 9 -25 9 -27 -5 -15 -14 12 -14 10 -5
-14 13 -35 13 -39 -2 -30 -10 6 -10 5 -1 -8 7 -8 10 -17 8 -20 -3 -3 -1 -18 5
-33 9 -25 9 -27 -5 -15 -14 12 -14 10 -5 -14 13 -35 13 -39 -2 -30 -10 6 -10
5 -1 -8 7 -8 10 -17 8 -20 -3 -3 -1 -18 5 -33 9 -25 9 -27 -5 -15 -14 12 -14
10 -5 -14 13 -35 13 -39 -2 -30 -10 6 -10 5 -1 -8 7 -8 10 -17 8 -20 -3 -3 -1
-18 5 -33 9 -25 9 -27 -5 -15 -14 12 -14 10 -5 -14 13 -35 13 -39 -2 -30 -10
6 -10 5 -1 -8 7 -8 10 -17 8 -20 -3 -3 -1 -18 5 -33 9 -25 9 -27 -5 -15 -14
12 -14 10 -5 -14 13 -35 13 -39 -2 -30 -10 6 -10 5 -1 -8 7 -8 10 -17 8 -20
-3 -3 -1 -18 5 -33 9 -25 9 -27 -5 -15 -14 12 -14 10 -5 -14 13 -35 13 -39 -2
-30 -10 6 -10 5 -1 -8 7 -8 10 -17 8 -20 -3 -3 -1 -18 5 -33 9 -25 9 -27 -5
-15 -14 12 -14 10 -5 -14 13 -35 13 -39 -2 -30 -10 6 -10 5 -1 -8 7 -8 10 -17
8 -20 -3 -3 -1 -18 5 -33 9 -25 9 -27 -5 -15 -14 12 -14 10 -5 -14 13 -35 13
-39 -2 -30 -10 6 -10 5 -1 -8 7 -8 10 -17 8 -20 -3 -3 -1 -18 5 -33 9 -25 9
-27 -5 -15 -14 12 -14 10 -5 -14 13 -35 13 -39 -2 -30 -10 6 -10 5 -1 -8 7 -8
10 -17 8 -20 -3 -3 -1 -18 5 -33 9 -25 9 -27 -5 -15 -14 12 -14 10 -5 -14 13
-35 13 -39 -2 -30 -10 6 -10 5 -1 -8 7 -8 10 -17 8 -20 -3 -3 -1 -18 5 -33 9
-25 9 -27 -5 -15 -14 12 -14 10 -5 -14 13 -35 13 -39 -2 -30 -10 6 -10 5 -1
-8 7 -8 10 -17 8 -20 -3 -3 -1 -18 5 -33 9 -25 9 -27 -5 -15 -14 12 -14 10 -5
-14 13 -35 13 -39 -2 -30 -10 6 -10 5 -1 -8 7 -8 10 -17 8 -20 -3 -3 -1 -18 5
-33 9 -25 9 -27 -5 -15 -14 12 -14 10 -5 -14 13 -35 13 -39 -2 -30 -10 6 -10
5 -1 -8 7 -8 10 -17 8 -20 -3 -3 -1 -18 5 -33 9 -25 9 -27 -5 -15 -14 12 -14
10 -5 -14 13 -35 13 -39 -2 -30 -10 6 -10 5 -1 -8 7 -8 10 -17 8 -20 -3 -3 -1
-18 5 -33 9 -25 9 -27 -5 -15 -14 12 -14 10 -5 -14 13 -35 13 -39 -2 -30 -10
6 -10 5 -1 -8 7 -8 10 -17 8 -20 -3 -3 -1 -18 5 -33 9 -25 9 -27 -5 -15 -14
12 -14 10 -5 -14 13 -35 13 -39 -2 -30 -8 5 -7 0 2 -11 9 -10 11 -20 5 -22
-11 -3 -12 -114 -1 -132 4 -6 3 -11 -1 -11 -7 0 -9 -44 -3 -60 1 -3 2 -8 1
-12 -5 -36 -3 -146 3 -156 4 -6 3 -12 -1 -12 -7 0 -9 -44 -3 -60 1 -3 2 -8 1
-12 -5 -36 -3 -146 3 -156 4 -6 3 -12 -1 -12 -7 0 -9 -44 -3 -60 1 -3 2 -8 1
-12 -5 -36 -3 -146 3 -156 4 -6 4 -12 -1 -12 -4 0 -8 -46 -7 -103 0 -56 -3
-110 -8 -119 -6 -13 -5 -18 4 -18 9 0 9 -3 -2 -10 -8 -5 -10 -10 -5 -10 6 0 2
-5 -7 -11 -10 -5 -18 -14 -18 -20 0 -5 -11 -22 -25 -37 -14 -15 -25 -23 -25
-18 0 5 -6 4 -12 -1 -24 -19 -138 -4 -138 17 0 5 -8 11 -18 14 -19 6 -22 31
-7 55 5 9 4 12 -3 7 -12 -7 -11 32 1 51 4 6 3 14 -1 17 -10 6 -9 36 1 53 4 6
3 14 -3 18 -6 4 -7 13 -1 23 10 21 3 45 -11 36 -5 -4 -2 6 8 22 11 15 14 25 7
21 -13 -8 -13 29 0 50 4 6 3 14 -1 17 -10 6 -9 36 1 52 3 6 4 14 0 18 -11 10
-9 86 2 86 5 0 4 4 -2 8 -11 7 -12 16 -3 57 1 6 1 13 0 18 -6 19 -5 33 5 39 7
5 6 8 -1 8 -13 0 -13 108 0 129 6 9 5 12 -1 8 -12 -8 -11 51 1 71 4 7 2 12 -4
12 -8 0 -7 6 1 21 6 12 7 19 1 15 -13 -8 -10 67 3 76 6 5 6 8 -2 8 -6 0 -9 9
-5 22 4 16 2 19 -9 14 -8 -4 -5 0 5 8 11 9 14 16 8 16 -10 0 -10 5 -1 21 8 15
8 19 0 15 -14 -9 -14 0 0 26 6 11 7 18 2 15 -13 -8 -11 86 2 95 7 5 7 8 0 8
-12 0 -13 59 -2 77 4 6 3 14 -1 17 -10 6 -9 36 1 52 3 6 4 14 0 18 -11 10 -9
86 2 86 5 0 4 4 -2 8 -11 7 -12 25 -2 57 2 6 -3 21 -10 34 -7 13 -9 21 -4 18
4 -3 8 71 8 164 0 93 -3 169 -6 169 -3 0 -3 23 1 50 4 33 3 50 -4 50 -6 0 -4
5 4 10 8 5 10 10 5 10 -6 0 -10 18 -8 40 1 22 -2 40 -8 40 -5 0 -9 7 -9 15 0
8 -3 15 -7 15 -5 0 -13 11 -20 25 -8 18 -8 23 0 18 11 -7 -28 52 -48 73 -5 5
-21 10 -35 10 -14 0 -31 3 -38 8 -6 4 -12 3 -12 -1 0 -10 -132 -9 -149 1 -6 4
-11 4 -11 -1 0 -10 -171 -9 -188 1 -7 4 -12 4 -12 -1 0 -10 -452 -9 -468 1 -7
4 -12 3 -12 -1 0 -5 -32 -9 -71 -8 -39 0 -73 -4 -76 -8 -3 -5 -9 -3 -13 4 -7
10 -12 10 -23 1 -7 -7 -17 -9 -20 -5 -4 3 -7 1 -7 -5 0 -6 -6 -9 -12 -7 -7 2
-22 -2 -33 -11 -17 -13 -20 -27 -20 -93 0 -44 -3 -77 -6 -75 -12 7 -7 -2051 5
-2058 7 -5 7 -8 1 -8 -14 0 -8 -139 6 -156 9 -11 8 -14 -1 -14 -9 0 -10 -3 -1
-13 6 -8 8 -17 4 -21 -4 -4 -1 -11 7 -16 9 -6 10 -10 3 -10 -13 0 -12 -17 5
-47 7 -12 12 -38 12 -58 0 -22 4 -34 10 -30 6 3 10 -3 10 -15 0 -11 7 -32 16
-45 9 -14 13 -25 9 -25 -4 0 -1 -8 6 -17 10 -12 11 -15 1 -9 -7 4 -4 -7 8 -26
11 -18 20 -41 20 -50 0 -9 4 -18 9 -20 5 -1 11 -10 13 -18 3 -14 7 -21 36 -55
7 -8 10 -15 6 -15 -4 0 4 -12 18 -27 14 -16 34 -41 44 -58 10 -16 55 -67 100
-112 45 -45 79 -85 75 -89 -3 -4 -1 -4 6 0 6 3 18 -2 25 -11 7 -10 19 -19 27
-21 18 -4 58 -32 46 -32 -5 0 8 -10 30 -21 22 -12 43 -27 47 -33 4 -6 11 -12
15 -12 27 -5 52 -17 48 -24 -2 -4 5 -7 18 -6 13 1 21 -4 19 -12 -1 -8 2 -11 7
-8 5 4 12 2 16 -3 3 -6 12 -8 20 -5 7 3 25 -2 39 -11 14 -10 26 -14 26 -10 0
5 9 0 21 -11 12 -10 23 -18 25 -16 2 1 5 2 7 1 1 0 17 -2 36 -5 19 -2 40 -9
48 -15 7 -6 22 -9 33 -6 11 3 22 1 25 -4 3 -4 12 -6 20 -2 8 3 15 1 15 -4 0
-10 8 -12 65 -15 19 -1 35 -4 35 -8 0 -3 19 -5 43 -5 23 1 50 -3 60 -7 9 -5
17 -5 17 0 0 5 19 6 43 2 44 -6 330 -4 382 3 17 2 29 8 28 13 -1 5 22 9 50 8
33 0 59 5 70 15 16 14 17 13 11 -5 -7 -17 -6 -18 10 -4 11 8 24 15 30 15 6 1
19 4 29 8 43 17 53 20 65 18 6 -1 12 3 12 9 0 5 3 9 8 8 4 -1 23 4 42 11 19 8
42 15 50 17 8 2 16 8 18 14 2 5 8 8 13 4 5 -3 9 0 9 5 0 6 3 10 8 9 12 -2 62
14 62 21 0 3 9 12 21 19 17 11 20 11 14 0 -4 -8 -1 -7 7 2 7 8 34 26 61 40 26
13 47 28 47 32 0 5 6 8 13 8 7 0 24 11 39 25 15 14 30 25 33 25 4 0 13 6 20
13 8 6 35 30 61 52 80 70 148 138 193 195 24 30 48 54 53 52 5 -1 7 2 3 7 -3
6 3 19 13 29 10 10 17 23 15 29 -2 6 4 17 14 25 10 7 19 20 21 28 2 8 11 26
20 40 9 14 17 31 18 39 2 8 8 18 16 22 7 4 9 11 6 15 -4 4 1 19 12 34 11 15
17 30 13 34 -3 3 -2 6 3 6 5 0 10 16 10 36 1 20 6 39 11 43 5 3 10 18 10 34 1
15 2 28 3 30 1 1 4 16 6 32 3 23 2 26 -6 15 -5 -8 -10 -10 -10 -4 0 6 3 14 7
18 9 9 13 169 16 572 2 234 5 294 16 308 8 9 10 16 5 15 -23 -4 -26 3 -8 22
10 11 14 20 9 19 -24 -5 -27 1 -9 21 11 13 13 19 5 17 -7 -2 -15 5 -16 15 -2
9 1 15 5 12 5 -3 12 -1 15 5 4 6 1 9 -6 8 -18 -4 -18 24 0 45 12 14 12 18 2
15 -17 -4 -24 34 -8 44 9 6 8 8 -2 8 -11 0 -9 4 5 15 10 9 13 14 5 13 -7 -2
-15 5 -16 15 -2 9 1 15 5 12 5 -3 12 -1 15 5 4 6 1 9 -5 8 -16 -4 -22 34 -7
44 9 6 8 8 -2 8 -11 0 -9 4 5 15 10 9 13 14 5 13 -7 -2 -15 5 -16 15 -2 9 1
15 5 12 5 -3 12 -1 15 5 4 6 1 9 -6 8 -18 -4 -18 24 0 45 9 10 11 18 6 17 -24
-5 -27 1 -9 21 10 11 14 20 9 19 -24 -5 -27 1 -9 21 11 13 13 19 5 17 -7 -2
-15 5 -16 15 -2 9 1 15 5 12 5 -3 12 -1 15 5 4 6 1 9 -6 8 -18 -4 -18 24 0 45
12 14 12 18 2 15 -17 -4 -24 34 -8 44 9 6 8 8 -2 8 -11 0 -9 4 5 15 10 9 13
14 5 13 -7 -2 -15 5 -16 15 -2 9 1 15 5 12 5 -3 12 -1 15 5 4 6 1 9 -5 8 -16
-4 -22 34 -7 44 9 6 8 8 -2 8 -11 0 -9 4 5 15 10 9 13 14 5 13 -7 -2 -15 5
-16 15 -2 9 1 15 5 12 5 -3 12 -1 15 5 4 6 1 9 -6 8 -18 -4 -18 24 0 45 9 10
11 18 6 17 -24 -5 -27 1 -9 21 10 11 14 20 9 19 -24 -5 -27 1 -9 21 11 13 13
19 5 17 -7 -2 -15 5 -16 15 -2 9 1 15 5 12 5 -3 12 -1 15 5 4 6 1 9 -6 8 -18
-4 -18 24 0 45 12 14 12 18 2 15 -17 -4 -24 34 -8 44 9 6 8 8 -2 8 -11 0 -9 4
5 15 10 9 13 14 5 13 -7 -2 -15 5 -16 15 -2 9 1 15 5 12 5 -3 12 -1 15 5 4 6
1 9 -5 8 -16 -4 -22 34 -7 44 9 6 8 8 -2 8 -11 0 -9 4 5 15 10 9 13 14 5 13
-7 -2 -15 5 -16 15 -2 9 1 15 5 12 5 -3 12 -1 15 5 4 6 1 9 -6 8 -18 -4 -18
24 0 45 9 10 11 18 6 17 -24 -5 -27 1 -9 21 10 11 14 20 9 19 -24 -5 -27 1 -9
21 11 13 13 19 5 17 -7 -2 -15 5 -16 15 -2 9 1 15 5 12 5 -3 12 -1 15 5 4 6 1
9 -6 8 -18 -4 -18 24 0 45 12 14 12 18 2 15 -7 -2 -15 7 -17 20 -2 13 1 22 9
22 9 0 9 2 -1 9 -11 7 -11 9 0 13 11 5 13 367 13 2126 0 1166 -3 2124 -7 2128
-4 3 -5 -4 -3 -16 2 -12 1 -19 -3 -16 -12 13 -8 51 8 64 11 9 12 12 1 10 -7
-2 -15 5 -16 15 -2 9 1 15 5 12 5 -3 12 -1 15 5 4 6 1 9 -6 8 -16 -4 -19 22
-5 41 9 12 8 13 -4 7 -8 -4 -6 0 5 10 14 11 15 15 4 11 -13 -4 -16 3 -16 34 0
27 -7 47 -22 63 -12 13 -21 27 -20 32 4 21 -2 57 -7 51 -4 -4 -14 1 -23 11
-17 18 -34 25 -63 26 -10 0 -18 4 -18 8 0 5 -8 4 -19 -1 -10 -6 -20 -8 -22 -6
-3 2 -28 6 -57 9 -29 3 -57 8 -63 11 -17 11 -59 13 -65 3 -3 -5 -12 -4 -20 3
-8 6 -14 8 -14 4 0 -4 -7 -2 -15 5 -8 7 -15 8 -15 3 0 -12 -40 -11 -40 2 0 5
-5 2 -11 -8 -8 -14 -14 -16 -24 -7 -8 7 -18 9 -24 6 -5 -3 -12 0 -14 6 -4 10
-6 10 -6 0 -1 -8 -6 -10 -13 -5 -7 4 -17 8 -23 10 -53 12 -86 14 -197 16 -70
1 -128 4 -128 8 0 6 -16 9 -77 11 -24 1 -43 6 -43 12 0 6 -4 5 -9 -3 -6 -9
-11 -10 -15 -2 -5 8 -13 8 -28 0 -11 -6 -23 -7 -27 -3 -9 13 -55 13 -63 0 -5
-8 -8 -7 -8 2 0 9 -5 10 -18 3 -11 -6 -24 -6 -34 0 -11 6 -19 5 -23 -1 -5 -7
-11 -8 -18 -1 -8 6 -18 6 -30 0z m1329 -578 c0 -17 -3 -28 -6 -26 -5 3 -6 38
-1 53 4 10 7 -3 7 -27z m-5 -94 c-10 -9 -11 -8 -5 6 3 10 9 15 12 12 3 -3 0
-11 -7 -18z m0 -80 c-10 -9 -11 -8 -5 6 3 10 9 15 12 12 3 -3 0 -11 -7 -18z
m6 -76 c0 -11 -5 -18 -9 -15 -4 3 -5 11 -1 19 7 21 12 19 10 -4z m-1 -110 c0
-17 -3 -28 -6 -26 -5 3 -6 38 -1 53 4 10 7 -3 7 -27z m0 -120 c0 -17 -3 -28
-6 -26 -5 3 -6 38 -1 53 4 10 7 -3 7 -27z m-5 -94 c-10 -9 -11 -8 -5 6 3 10 9
15 12 12 3 -3 0 -11 -7 -18z m0 -80 c-10 -9 -11 -8 -5 6 3 10 9 15 12 12 3 -3
0 -11 -7 -18z m6 -76 c0 -11 -5 -18 -9 -15 -4 3 -5 11 -1 19 7 21 12 19 10 -4z
m-1 -110 c0 -17 -3 -28 -6 -26 -5 3 -6 38 -1 53 4 10 7 -3 7 -27z m0 -120 c0
-17 -3 -28 -6 -26 -5 3 -6 38 -1 53 4 10 7 -3 7 -27z m-5 -94 c-10 -9 -11 -8
-5 6 3 10 9 15 12 12 3 -3 0 -11 -7 -18z m0 -80 c-10 -9 -11 -8 -5 6 3 10 9
15 12 12 3 -3 0 -11 -7 -18z m5 -106 c0 -17 -3 -28 -6 -26 -5 3 -6 38 -1 53 4
10 7 -3 7 -27z m1 -106 c0 -8 -4 -12 -9 -9 -5 3 -6 10 -3 15 9 13 12 11 12 -6z
m-1 -54 c0 -17 -3 -28 -6 -26 -5 3 -6 38 -1 53 4 10 7 -3 7 -27z m1 -106 c0
-8 -4 -12 -9 -9 -5 3 -6 10 -3 15 9 13 12 11 12 -6z m-1 -54 c0 -17 -3 -28 -6
-26 -5 3 -6 38 -1 53 4 10 7 -3 7 -27z m1 -106 c0 -8 -4 -12 -9 -9 -5 3 -6 10
-3 15 9 13 12 11 12 -6z m-1 -54 c0 -17 -3 -28 -6 -26 -5 3 -6 38 -1 53 4 10
7 -3 7 -27z m1 -106 c0 -8 -4 -12 -9 -9 -5 3 -6 10 -3 15 9 13 12 11 12 -6z
m-1 -54 c0 -17 -3 -28 -6 -26 -5 3 -6 38 -1 53 4 10 7 -3 7 -27z m1 -106 c0
-8 -4 -12 -9 -9 -5 3 -6 10 -3 15 9 13 12 11 12 -6z m-1 -54 c0 -17 -3 -28 -6
-26 -5 3 -6 38 -1 53 4 10 7 -3 7 -27z m1 -106 c0 -8 -4 -12 -9 -9 -5 3 -6 10
-3 15 9 13 12 11 12 -6z m-1 -54 c0 -17 -3 -28 -6 -26 -5 3 -6 38 -1 53 4 10
7 -3 7 -27z m1 -106 c0 -8 -4 -12 -9 -9 -5 3 -6 10 -3 15 9 13 12 11 12 -6z
m-1 -54 c0 -17 -3 -28 -6 -26 -5 3 -6 38 -1 53 4 10 7 -3 7 -27z m1 -106 c0
-8 -4 -12 -9 -9 -5 3 -6 10 -3 15 9 13 12 11 12 -6z m-1 -54 c0 -17 -3 -28 -6
-26 -5 3 -6 38 -1 53 4 10 7 -3 7 -27z m1 -106 c0 -8 -4 -12 -9 -9 -5 3 -6 10
-3 15 9 13 12 11 12 -6z m-1 -54 c0 -17 -3 -28 -6 -26 -5 3 -6 38 -1 53 4 10
7 -3 7 -27z m1 -106 c0 -8 -4 -12 -9 -9 -5 3 -6 10 -3 15 9 13 12 11 12 -6z
m-1 -54 c0 -17 -3 -28 -6 -26 -5 3 -6 38 -1 53 4 10 7 -3 7 -27z m1 -106 c0
-8 -4 -12 -9 -9 -5 3 -6 10 -3 15 9 13 12 11 12 -6z m-1 -54 c0 -17 -3 -28 -6
-26 -5 3 -6 38 -1 53 4 10 7 -3 7 -27z m1 -106 c0 -8 -4 -12 -9 -9 -5 3 -6 10
-3 15 9 13 12 11 12 -6z m-1 -54 c0 -17 -3 -28 -6 -26 -5 3 -6 38 -1 53 4 10
7 -3 7 -27z m1 -106 c0 -8 -4 -12 -9 -9 -5 3 -6 10 -3 15 9 13 12 11 12 -6z
m-1 -54 c0 -17 -3 -28 -6 -26 -5 3 -6 38 -1 53 4 10 7 -3 7 -27z m1 -106 c0
-8 -4 -12 -9 -9 -5 3 -6 10 -3 15 9 13 12 11 12 -6z m-1 -54 c0 -17 -3 -28 -6
-26 -5 3 -6 38 -1 53 4 10 7 -3 7 -27z m1 -106 c0 -8 -4 -12 -9 -9 -5 3 -6 10
-3 15 9 13 12 11 12 -6z m-1 -54 c0 -17 -3 -28 -6 -26 -5 3 -6 38 -1 53 4 10
7 -3 7 -27z m1 -111 c1 -11 -2 -22 -6 -24 -6 -4 -7 26 -2 42 3 8 7 -1 8 -18z
m-6 -103 c-10 -9 -11 -8 -5 6 3 10 9 15 12 12 3 -3 0 -11 -7 -18z m6 -76 c0
-11 -5 -18 -9 -15 -4 3 -5 11 -1 19 7 21 12 19 10 -4z m-1 -110 c0 -17 -3 -28
-6 -26 -5 3 -6 38 -1 53 4 10 7 -3 7 -27z"/>
<path d="M6786 10165 c3 -6 -7 -20 -21 -31 l-25 -19 0 -3480 c0 -1914 4 -3485
8 -3491 11 -17 65 -42 80 -37 6 3 12 -1 12 -9 0 -10 3 -9 10 2 7 10 12 12 18
4 7 -11 13 -13 70 -17 17 -1 32 -6 32 -11 0 -6 5 -5 12 2 6 6 18 8 27 3 9 -4
62 -7 118 -7 73 1 103 -2 103 -11 0 -17 17 -25 26 -12 4 8 3 9 -4 5 -7 -4 -12
-2 -12 3 0 10 11 14 28 9 4 -1 6 -7 5 -13 -2 -8 106 -11 366 -12 324 -1 369 1
364 14 -5 12 -7 12 -14 1 -6 -9 -9 -9 -9 -1 0 17 17 25 25 13 5 -7 12 -5 22 7
8 10 11 11 7 3 -4 -10 -4 -11 3 -5 17 18 33 65 22 65 -6 0 -6 6 1 19 7 14 7
22 0 26 -8 5 -7 11 1 21 9 11 9 14 0 14 -7 0 -9 5 -6 11 10 16 13 59 5 59 -10
0 -8 20 3 37 5 8 3 13 -3 13 -6 0 -8 5 -5 11 12 18 13 59 1 59 -6 0 -4 5 4 10
11 7 11 10 2 10 -10 0 -10 5 -2 20 6 12 7 20 1 20 -6 0 -6 11 -1 30 5 17 5 30
0 30 -10 0 -8 19 3 38 5 7 3 12 -3 12 -6 0 -8 5 -5 11 12 18 13 59 1 59 -6 0
-4 5 4 10 11 7 11 10 2 10 -10 0 -10 5 -2 20 6 12 7 20 1 20 -6 0 -6 11 -1 30
5 17 5 30 0 30 -10 0 -8 19 3 38 5 7 3 12 -3 12 -6 0 -8 5 -5 11 10 16 13 59
5 59 -10 0 -8 20 3 38 5 7 3 12 -3 12 -7 0 -8 6 0 19 7 14 7 22 0 26 -8 5 -7
11 1 21 9 11 9 14 0 14 -8 0 -9 5 -1 19 7 14 7 22 0 26 -8 5 -7 11 1 21 9 11
9 14 0 14 -8 0 -9 5 -1 19 7 14 7 22 0 26 -8 5 -7 11 1 21 9 11 9 14 0 14 -9
0 -9 5 0 22 9 16 9 23 1 26 -9 3 -9 9 -2 23 7 12 7 19 1 19 -6 0 -6 11 -1 30
5 17 5 30 0 30 -10 0 -8 19 3 38 5 7 3 12 -3 12 -6 0 -8 5 -5 11 12 18 13 59
1 59 -6 0 -4 5 4 10 11 7 11 10 2 10 -10 0 -10 5 -2 20 8 14 8 20 0 20 -8 0
-8 6 0 20 8 14 8 20 0 20 -8 0 -8 6 0 20 6 12 7 20 1 20 -6 0 -6 11 -1 30 5
17 5 30 0 30 -10 0 -8 19 3 38 5 7 3 12 -3 12 -6 0 -8 5 -5 11 12 18 13 59 1
59 -6 0 -4 5 4 10 11 7 11 10 2 10 -10 0 -10 5 -2 20 8 14 8 20 0 20 -8 0 -8
6 0 20 8 14 8 20 0 20 -8 0 -8 6 0 20 6 12 7 20 1 20 -6 0 -6 11 -1 30 5 17 5
30 0 30 -10 0 -8 19 3 38 5 7 3 12 -3 12 -6 0 -8 5 -5 11 12 18 13 59 1 59 -6
0 -4 5 4 10 11 7 11 10 2 10 -10 0 -10 5 -2 20 8 14 8 20 0 20 -8 0 -8 6 0 20
8 14 8 20 0 20 -8 0 -8 6 0 20 6 12 7 20 1 20 -6 0 -6 11 -1 30 5 17 5 30 0
30 -10 0 -8 19 3 38 5 7 3 12 -3 12 -6 0 -8 5 -5 11 12 18 13 59 1 59 -6 0 -4
5 4 10 11 7 11 10 2 10 -10 0 -10 5 -2 20 6 11 7 20 3 20 -10 0 -10 41 1 58 4
7 2 12 -4 12 -7 0 -8 6 0 19 7 14 7 22 0 26 -8 5 -7 11 1 21 9 11 9 14 0 14
-8 0 -9 5 -1 19 7 14 7 22 0 26 -8 5 -7 11 1 21 9 11 9 14 0 14 -8 0 -9 5 -1
19 7 14 7 22 0 26 -8 5 -7 11 1 21 9 11 9 14 0 14 -7 0 -9 5 -6 11 10 16 13
59 5 59 -10 0 -8 20 3 38 5 7 3 12 -3 12 -6 0 -8 5 -5 11 12 18 13 59 1 59 -6
0 -4 5 4 10 11 7 11 10 2 10 -10 0 -10 5 -2 20 7 13 7 20 1 20 -6 0 -8 7 -6
15 16 50 14 48 32 34 9 -8 14 -9 10 -3 -7 13 52 12 73 -1 8 -5 11 -4 7 2 -7
12 54 10 73 -2 8 -5 11 -4 7 2 -7 12 54 10 73 -2 8 -5 11 -4 7 2 -7 12 54 10
73 -2 8 -5 11 -4 7 2 -7 12 54 10 73 -2 8 -5 11 -4 7 2 -7 12 54 10 73 -2 8
-5 11 -4 7 2 -7 12 54 10 73 -2 8 -5 11 -4 7 2 -7 12 54 10 73 -2 8 -5 11 -4
7 2 -7 12 54 10 73 -2 9 -5 11 -4 6 3 -8 14 0 14 29 3 11 -5 25 -4 33 1 6 6
12 7 12 3 0 -4 8 -1 17 6 11 10 14 10 9 2 -11 -20 8 -15 31 6 12 11 23 18 25
15 3 -2 4 21 3 50 0 30 3 52 7 50 10 -6 6 26 -5 44 -5 6 -4 12 2 12 10 0 8 31
-4 49 -3 5 -1 12 5 16 6 4 7 12 4 18 -4 8 -2 7 7 -1 12 -11 12 -14 -1 -23 -13
-9 -13 -10 0 -6 18 5 22 47 5 47 -8 0 -11 8 -8 20 3 11 8 18 12 16 4 -3 7 6 7
19 0 13 -4 21 -8 19 -5 -3 -5 -10 -2 -16 4 -7 2 -8 -4 -4 -9 5 -9 13 0 29 14
26 23 69 9 49 -6 -10 -10 -8 -14 8 -4 17 -2 20 11 16 13 -5 12 -3 -2 9 -20 15
-20 15 0 15 11 0 15 3 8 8 -16 11 -25 42 -11 36 8 -3 13 5 14 18 0 13 -1 17
-4 11 -8 -21 -22 -15 -16 7 3 11 8 18 12 16 4 -3 7 6 7 19 0 13 -3 22 -6 20
-3 -2 -12 0 -20 6 -9 5 -10 9 -3 9 12 0 12 17 0 37 -4 6 -1 13 5 16 10 3 10 9
0 27 -8 12 -9 19 -3 15 6 -3 11 -1 11 4 0 6 -3 11 -7 11 -5 0 -8 18 -9 40 0
25 3 37 10 33 6 -4 5 1 -3 10 -7 9 -10 17 -7 17 4 0 2 9 -4 20 -8 15 -8 20 1
20 7 0 3 10 -9 23 -12 13 -19 27 -15 30 3 4 2 7 -3 7 -5 0 -11 14 -12 30 -3
36 -29 70 -54 70 -10 0 -18 5 -18 11 0 6 -9 9 -20 6 -10 -3 -21 0 -24 7 -3 7
-5 7 -5 -1 -1 -7 -6 -13 -12 -13 -5 0 -8 3 -6 8 3 4 -14 7 -38 7 -25 1 -41 -3
-38 -9 4 -5 1 -6 -8 0 -8 5 -22 7 -32 6 -10 -2 -26 2 -35 10 -13 11 -14 11 -7
-1 6 -11 3 -13 -12 -9 -12 3 -27 2 -34 -3 -7 -4 -18 -5 -24 -1 -15 10 -39 8
-47 -3 -5 -6 -8 -5 -8 3 0 10 -5 10 -20 2 -12 -6 -20 -7 -20 -1 0 6 -11 6 -30
1 -17 -5 -28 -5 -25 0 4 7 -36 7 -70 0 -5 -1 -14 -1 -20 0 -25 6 -41 4 -47 -5
-5 -6 -8 -4 -8 5 0 13 -1 13 -10 0 -7 -11 -10 -11 -10 -2 0 7 -5 10 -11 6 -6
-3 -41 -8 -77 -9 -37 -1 -67 -4 -67 -5 0 -1 -8 -3 -18 -5 -9 -2 -15 1 -11 6 3
5 0 9 -7 9 -9 0 -9 3 0 14 9 11 9 16 0 21 -8 6 -7 10 2 16 10 6 10 9 2 9 -9 0
-10 7 -4 23 5 13 5 30 1 37 -5 8 -6 18 -3 23 10 17 10 57 -1 57 -6 0 -4 5 4
10 11 7 11 10 2 10 -10 0 -10 5 -2 20 8 14 8 20 0 20 -8 0 -8 6 0 20 8 14 8
20 0 20 -8 0 -8 6 0 20 6 12 7 20 1 20 -6 0 -6 11 -1 30 5 17 5 30 0 30 -10 0
-8 19 3 38 5 7 3 12 -3 12 -6 0 -8 5 -5 11 12 18 13 59 1 59 -6 0 -4 5 4 10
11 7 11 10 2 10 -10 0 -10 5 -2 20 8 14 8 20 0 20 -8 0 -8 6 0 20 8 14 8 20 0
20 -8 0 -8 6 0 20 6 12 7 20 1 20 -6 0 -6 11 -1 30 5 17 5 30 0 30 -10 0 -8
19 3 38 5 7 3 12 -3 12 -6 0 -8 5 -5 11 12 18 13 59 1 59 -6 0 -4 5 4 10 11 7
11 10 2 10 -10 0 -10 5 -2 20 6 11 7 20 3 20 -10 0 -10 41 1 58 4 7 2 12 -4
12 -7 0 -8 6 0 19 7 14 7 22 0 26 -8 5 -7 11 1 21 9 11 9 14 0 14 -8 0 -9 5
-1 19 7 14 7 22 0 26 -8 5 -7 11 1 21 9 11 9 14 0 14 -8 0 -9 5 -1 19 7 14 7
22 0 26 -8 5 -7 11 1 21 9 11 9 14 0 14 -7 0 -9 5 -6 11 10 16 13 59 5 59 -10
0 -8 20 3 38 5 7 3 12 -3 12 -6 0 -8 5 -5 11 12 18 13 59 1 59 -6 0 -4 5 4 10
11 7 11 10 2 10 -10 0 -10 5 -2 20 6 12 7 20 1 20 -6 0 -6 11 -1 30 5 17 5 30
0 30 -10 0 -8 19 3 38 5 7 3 12 -3 12 -6 0 -8 5 -5 11 12 18 13 59 1 59 -6 0
-4 5 4 10 11 7 11 10 2 10 -10 0 -10 5 -2 20 6 12 7 20 1 20 -6 0 -6 11 -1 30
5 17 5 30 0 30 -10 0 -8 19 3 38 5 7 3 12 -3 12 -6 0 -8 5 -5 11 10 16 13 59
5 59 -10 0 -8 20 3 38 5 7 3 12 -3 12 -7 0 -8 6 -1 18 7 13 6 23 -1 30 -9 9
-7 12 10 12 12 0 22 6 22 13 0 8 4 7 10 -3 5 -8 10 -10 10 -5 0 6 22 10 50 9
31 -1 50 3 50 10 0 6 4 6 9 -3 7 -10 13 -11 30 -2 16 9 21 9 21 0 0 -8 4 -8
15 1 11 9 15 9 15 1 0 -8 5 -9 19 -1 14 7 21 6 24 -3 4 -9 6 -8 6 2 1 11 4 11
18 0 9 -8 14 -9 10 -3 -4 8 11 11 48 10 30 -1 55 3 55 8 0 6 7 1 16 -10 8 -10
13 -13 9 -7 -4 9 2 13 17 13 13 0 49 0 80 1 32 0 63 -3 69 -7 7 -4 9 -3 6 3
-8 13 24 27 32 15 8 -10 51 -11 45 0 -3 4 -1 8 5 8 5 0 11 -5 13 -11 3 -9 9
-9 24 -1 15 8 24 8 32 0 9 -9 12 -8 12 2 0 12 2 13 9 1 6 -10 13 -11 29 -2 14
8 23 8 27 1 5 -8 11 -7 20 0 8 7 19 9 25 5 5 -3 13 2 17 12 4 10 11 21 17 25
8 5 7 8 -1 8 -12 0 -11 56 1 68 3 3 1 11 -5 19 -6 7 -7 13 -2 13 13 0 13 32
-1 49 -9 12 -8 13 3 6 11 -6 13 -3 9 13 -4 13 -2 19 6 16 7 -3 12 5 13 18 0
13 -1 17 -4 11 -8 -21 -22 -15 -16 7 3 11 8 18 12 16 4 -3 7 6 7 19 0 13 -4
21 -8 19 -5 -3 -5 -10 -2 -16 4 -7 2 -8 -4 -4 -9 5 -9 13 0 29 14 26 23 69 9
49 -6 -10 -10 -8 -14 8 -4 17 -2 20 11 15 14 -5 15 -4 5 6 -14 14 -18 33 -5
25 4 -2 8 5 9 17 0 12 -1 16 -4 10 -8 -21 -18 -15 -18 11 0 13 5 22 11 19 6
-2 11 3 11 12 0 11 -6 14 -21 9 -15 -4 -17 -3 -7 4 8 6 10 15 5 23 -12 20 -14
40 -3 33 5 -3 6 -10 3 -16 -4 -7 -2 -8 4 -4 9 5 9 13 2 27 -6 10 -8 19 -4 19
3 0 1 7 -6 15 -8 9 -9 15 -2 15 10 0 9 31 -2 48 -2 4 -1 14 4 22 5 9 4 20 -3
29 -9 11 -9 15 1 19 10 3 9 8 -4 23 -9 10 -13 19 -7 19 15 0 7 81 -9 91 -7 5
-8 9 -3 9 7 0 7 3 0 8 -17 12 -41 47 -27 38 15 -9 16 6 0 22 -7 7 -9 12 -5 12
4 0 -3 11 -15 25 l-22 25 -665 0 c-501 -1 -669 -4 -680 -13 -12 -9 -13 -9 -8
0 10 16 -91 15 -112 -1 -11 -8 -13 -8 -8 0 8 13 -291 13 -312 0 -9 -6 -12 -5
-8 0 3 6 -54 10 -153 10 -115 0 -157 -3 -154 -11z m518 -7100 c-4 -8 -8 -15
-10 -15 -2 0 -4 7 -4 15 0 8 4 15 10 15 5 0 7 -7 4 -15z m61 0 c6 0 13 4 17
10 5 6 8 6 8 -2 0 -7 7 -10 18 -6 9 3 14 2 9 -2 -4 -5 -30 -9 -57 -10 -40 -1
-47 1 -39 12 6 7 16 10 23 6 6 -4 16 -8 21 -8z m602 0 c0 -8 -4 -15 -9 -15
-10 0 -11 14 -1 23 9 10 10 9 10 -8z"/>
<path d="M7139 3053 c-13 -16 -12 -17 4 -4 9 7 17 15 17 17 0 8 -8 3 -21 -13z"/>
</g>
</svg>
