<svg version="1" xmlns="http://www.w3.org/2000/svg" width="1605.333" height="1605.333" viewBox="0 0 1204.000000 1204.000000"><path d="M577.8 188.5c-.1.1-3.9.5-8.3.9-16.1 1.1-21.7 1.8-30 3.3-1.6.3-4.1.6-5.5.8-4.2.5-10.3 1.6-15 2.7-2.5.5-5.4 1.1-6.5 1.4-1.1.2-3.1.6-4.5.9-1.4.3-3.4.7-4.5 1-1.1.2-4.5 1.1-7.5 2-3 .8-6.3 1.7-7.4 2-1 .2-4.4 1.2-7.5 2.1-3.1 1-6 1.9-6.6 2-6.5 1.7-28.8 10.2-38.3 14.5-3.5 1.6-6.8 2.9-7.4 2.9-.6 0-1.9.7-2.9 1.6-.9.8-2.3 1.6-3.1 1.8-.7.1-5.6 2.3-10.8 5-27.8 14.1-55.3 32.4-80.5 53.4-9.7 8.1-39.5 37.6-46 45.6-2.2 2.7-4.7 5.7-5.5 6.6-3.2 3.8-4.7 5.8-10.5 13.5-3.3 4.4-6.3 8.1-6.7 8.3-.5.2-.8.8-.8 1.3 0 .6-1.8 3.4-4 6.4-2.2 3-4 5.9-4 6.5 0 .5-.4 1-1 1-.5 0-1 .5-1 1 0 .6-.5 1.6-1 2.3-2.6 3.1-5.8 8.6-5.2 9.1.3.3 0 .6-.6.6-.7 0-1.2.6-1.2 1.4 0 .8-.3 1.6-.7 1.8-1.7.7-19.5 35.7-23.8 46.8-.1.3-.5 1.4-1 2.5-6.9 17-14.6 39.7-17 50.5-.2.8-.4 1.5-.5 1.5-.1 0-.3.7-.5 1.5-1.4 5.6-3.2 13.6-3.9 17.2-.3 1.6-.9 4-1.2 5.5-.3 1.6-.9 4.7-1.5 7-.5 2.4-.9 4.6-.8 5 .1.5 0 1-.1 1.3-.5 1.4-1 4.9-2.6 18-.3 2.5-.7 6.3-1 8.4-.3 2.1-.8 6.6-1.1 10-.7 8.2-1.1 60.9-.5 61.9.2.5.6 4.1.8 8 .1 4 .5 9 .8 11.2.3 2.2.8 6.6 1.1 9.8.4 3.2.8 6.8 1.1 8 .2 1.2.7 3.8 1 5.7 1 6.6 1.3 8.5 2.3 13.5 1.8 8.6 2 9.9 3.1 14.6.6 2.6 1.3 5.3 1.4 6 .2.8.5 2.1.8 2.9.8 2.2 4.8 16.2 5.3 18.6.3 1.2 1.2 4.1 2.1 6.5.8 2.4 1.7 5.1 1.9 5.9.2.8 2.6 7.3 5.4 14.3 7.4 18.7 15.1 34.6 24.9 51.7 3 5.2 6 10.4 6.6 11.4.6 1.1 1.4 2.5 1.9 3 .4.6 2.3 3.5 4.2 6.3 11.1 16.7 22.6 32.3 23.7 32.3.4 0 .8.5.8 1.1 0 .6.6 1.6 1.3 2.3.7.8 2.9 3.2 4.8 5.6 5 6.2 6.7 8.1 10.5 12.3l3.5 3.7-2.3.9c-5 1.8-30.3 10.3-31.8 10.6-.8.2-3.5 1.1-6 2-2.5.9-5.2 1.8-6.1 2-.9.2-3.9 1.1-6.5 2-2.7.9-5.6 1.8-6.4 2-3.1.8-23.6 6.7-25 7.2-.8.3-1.9.7-2.5.8-.5.2-6.6 1.7-13.5 3.5-6.9 1.7-13.2 3.3-14 3.5-.8.2-4.4 1-8 1.9-3.6.8-7.6 1.7-9 2-1.4.2-5 1-8 1.6-3 .6-6.8 1.3-8.5 1.6-1.6.2-3.9.6-5 .8-1.1.2-4.5.7-7.5 1.1-3 .4-6.6.9-8 1.1-10.3 1.7-40.8 2.4-49.5 1-2.2-.4-7.1-1.6-10.8-2.8-7.4-2.3-14.6-8-14.8-11.7-.1-1.1-.2-3.1-.3-4.4-.3-2.8 3.5-17.1 4.6-17.5.4-.2.8-1.1.8-2 0-1.6 8-17 12.7-24.4 1.4-2.4 2.5-4.5 2.4-4.7-.2-.2.1-.7.6-1 .5-.3 3.4-4.2 6.5-8.6 7.1-10.1 20.7-27.3 29.8-37.5 15.5-17.3 33.7-35.9 52.3-53.5l10.4-9.7-1.3-3.7c-1.3-3.7-2-5.8-2.4-7.6-.1-.6-.8-2.6-1.5-4.5-2.6-6.8-8.7-30.7-8.9-34.3 0-.9-.4-1.7-.8-1.7s-.5-.6-.2-1.4c.9-2.5-1.7-2.9-4-.7-1.1 1.2-3.2 3.1-4.5 4.2-2.6 2.1-14.2 12.5-25 22.4-10.6 9.7-45.1 44.4-52.1 52.4-3.6 4.1-7.8 8.8-9.5 10.6-1.6 1.8-4.3 5-6 7.1-1.6 2.1-4.5 5.6-6.4 7.8-16.5 19.8-35.3 49.9-42 67.4-1 2.6-2.2 5.6-2.6 6.7-.5 1.1-.9 2.3-1 2.7-.2.5-.3.9-.5 1-.2.4-.7 2.3-2.9 12.8-2 9.2-2.4 28-.8 32 .4.8.9 2.8 1.1 4.4.3 1.6 2.4 6.7 4.7 11.4 5.2 10.4 13.9 19.7 24.8 26.6 4.6 2.9 17.8 8.5 21.9 9.2 1.4.3 2.9.7 3.4 1 .9.6 3.5 1.2 8.8 2 1.9.3 4.6.7 5.9.9 17.2 2.9 50.3 2.2 74.1-1.5 4.1-.7 8.6-1.3 10-1.4 1.4-.2 4-.7 5.8-1.1 1.9-.4 4.3-.8 5.5-1 4.3-.5 19.4-3.7 33.7-7.2 8-1.9 15.4-3.7 16.5-3.9 1.1-.2 9.9-2.6 19.5-5.4 9.6-2.8 19.1-5.6 21-6.1 9.7-2.9 45-15 64.5-22.1 6.1-2.3 12.8-4.7 15-5.5 2.2-.7 4.9-1.8 6-2.2 3.6-1.6 49.9-20.2 54.5-21.9 2.5-1 4.7-2 5-2.3.3-.4 1.6-1 2.8-1.4 1.3-.4 4.5-1.6 7-2.8 2.6-1.1 4.8-1.9 4.9-1.9.2.1 2.9-1.1 6-2.7s6.1-2.7 6.5-2.5c.4.3.8 0 .8-.5 0-.6.5-1.1 1-1.1 1.2 0 21.4-9 49-21.8 3-1.4 5.7-2.6 6-2.7.3 0 2.9-1.3 5.9-2.8 3-1.5 6-2.7 6.7-2.7.7 0 1.4-.3 1.6-.8.3-.7 10.6-5.8 12.1-6 .4-.1 3.2-1.5 6.2-3.1 3-1.7 5.5-2.7 5.5-2.3 0 .4.4.2.8-.3.4-.6 11.5-6.4 24.7-13s26.6-13.4 29.8-15.2c3.3-1.8 6.5-3.3 7.3-3.3.8 0 1.4-.4 1.4-.8s2.6-2 5.8-3.6c3.1-1.5 8.4-4.2 11.7-6 3.3-1.7 7.5-4 9.2-4.9 1.8-1 3.6-1.7 3.9-1.6.4 0 1-.3 1.3-.8.3-.5 4.4-3 9.1-5.5 4.7-2.5 10.3-5.5 12.5-6.8 4.3-2.3 59-33.5 61.5-35 .8-.5 5.7-3.4 10.9-6.5s9.7-5.2 10-4.7c.8 1.3.7 203.9-.1 204.7-1.3 1.3-28.6 10-34.5 11-1.8.3-4.5 1-6 1.6-1.5.6-4.4 1.2-6.3 1.5-3.5.4-4.4.6-9 1.7-2.5.6-7.8 1.5-13.5 2.3-1.6.2-4.6.6-6.5.9-21.1 3.4-66.8 3.9-89 1-1.4-.2-4.7-.6-7.5-1-2.7-.4-5.7-.7-6.5-.7-.8 0-3.1-.4-5-.8-1.9-.5-4.8-1.1-6.5-1.3-10.7-1.7-29.6-6.4-43-10.8-3.8-1.2-7.4-2.4-8-2.5-1.5-.4-8.6-3.1-12-4.5-1.6-.7-3.2-1.3-3.5-1.4-.3-.1-2.3-.9-4.5-1.9-2.2-1-4.4-1.9-5-2-.5-.1-4.6-1.9-8.9-3.9-8.5-4-8.6-4-17.1-.2-4.6 2-8.3 3.6-9.5 4-.7.2-5.1 2-18 7.4-6.3 2.7-14.8 6.1-18.8 7.6l-7.4 2.9 2.4 1.7c1.3 1 3.4 2.4 4.8 3.1 1.4.7 5.3 3 8.8 5.1 9.3 5.6 39 19.8 52.2 25 11.6 4.6 30.3 10.8 44 14.7 4.1 1.2 9 2.6 10.7 3.1 1.8.6 3.7.7 4.3.4.5-.3 1-.2 1 .3s.6.9 1.3.9c.6 0 4.8.7 9.2 1.6 10.5 2.2 13.2 2.6 18 3.3 2.2.2 5.1.7 6.5 1 4.1.9 12.9 1.9 27 3.1 18 1.5 65 .8 77-1.1 1.4-.2 5.2-.8 8.5-1.2 3.3-.4 6.7-.8 7.5-.9.8-.2 3.3-.5 5.5-.9 6.4-.9 9.6-1.5 17-3.1 3.9-.8 7.9-1.7 9-1.9 1.1-.2 5.8-1.4 10.5-2.6 4.7-1.2 9.2-2.3 10-2.5 2.2-.4 33.9-11.1 37.5-12.6 1.7-.7 3.2-1.3 3.5-1.4.3-.1 2.2-.9 4.4-1.8 2.1-.9 4-1.7 4.2-1.7.5 0 12.6-5.5 21.4-9.8 6.7-3.2 14.4-7.4 26.5-14.2 7.7-4.3 25.8-16.1 31.7-20.5 3.2-2.5 6-4.5 6.3-4.5.3 0 1.5-.9 2.7-1.9 1.3-1 6.1-5 10.8-8.7 12.6-10.2 16.8-13.9 31.3-28 5.3-5.3 9.7-9.7 9.7-9.9 0-.2 1.5-1.8 3.3-3.7 7.1-7.3 13.6-15.1 22.6-26.8 3.6-4.7 6.8-8.7 7.2-9 .3-.3 1.4-2 2.3-3.8.9-1.7 2.1-3.2 2.6-3.2.6 0 1-.5 1-1.1 0-.6 1.1-2.5 2.5-4.3 1.4-1.8 2.5-3.8 2.5-4.4 0-.6.4-1.2.8-1.4 1.1-.4 9.2-13.5 9.2-14.8 0-.5.3-1 .8-1 .4 0 1.2-1 1.7-2.3 2.1-4.3 6-11.2 6.8-11.8.5-.3.8-.9.8-1.3 0-.3 2.3-5.5 5.3-11.5 2.9-6.1 5.1-11.3 4.8-11.6-.3-.3 0-.5.6-.5.7 0 1.2-.6 1.2-1.3 0-.6.6-2.4 1.4-3.9.8-1.4 1.9-4.3 2.6-6.5.7-2.1 1.7-4.4 2.3-5.1.5-.6.6-1.2.2-1.2-.4 0-.3-.6.3-1.3 1.4-1.7 11.8-32.7 12.6-37.7.1-.3.5-1.1.9-1.8.5-.6.6-1.2.3-1.2s-.1-1.1.4-2.5 1.2-3.6 1.4-4.8c.2-1.2 1.4-6.5 2.5-11.7 1.1-5.2 2.3-11.1 2.6-13 .3-1.9.8-4.2 1-5 .2-.8.7-3.3 1-5.5.3-2.3.7-5.1 1-6.5.2-1.3.7-4.6 1-7.4.3-2.8.7-6.7.9-8.6 2.7-19.9 2.7-70.4.1-92.5-.2-1.7-.6-5.5-.9-8.5-.3-3-.8-6.6-1.1-8-.6-3.2-1.3-7.7-2-12.1-3.1-21.9-14.8-63-23.7-82.8-1-2.4-2.8-6.6-3.9-9.3-2.4-6.2-16.5-33.7-20.4-39.8-1.6-2.5-2.7-4.5-2.6-4.5.3 0-6.3-10.4-7.6-12-.5-.6-2-2.8-3.3-5-4.1-6.8-25-34.6-28.2-37.6-1-.9-1.8-1.9-1.8-2.2 0-.4-2-2.7-4.4-5.2-2.4-2.5-4.2-4.5-3.9-4.5.4 0-.4-.9-1.7-2l-2.3-2 2.4-.8c15.3-5.6 64.6-21.5 70.5-22.8 1.2-.2 5.2-1.3 8.9-2.5 3.8-1.1 7.6-2.3 8.6-2.5 3.9-.8 5.7-1.3 15.4-3.8 11-2.7 27.6-6.5 31.5-7.1 1.4-.2 3.6-.7 5-1 2.9-.6 6.2-1.2 10.5-1.9 9.9-1.5 12.2-1.9 13.7-2.1 9.4-1.8 42.4-2.5 50.8-1.1 5.2.8 17.3 4.5 18 5.4.3.4 1.4 1.2 2.4 1.8 8.4 4.6 7.8 16.5-1.9 37-4.6 9.8-16.5 29.2-22.1 36-1.8 2.3-3 4.4-2.7 4.8.4.3.2.6-.4.6-.5 0-2.9 2.7-5.3 6s-4.7 6-5.1 6c-.4 0-1 .8-1.4 1.7-.3 1-2.4 3.9-4.8 6.4-2.3 2.5-5.3 5.9-6.7 7.6-8.7 10.6-38.3 41-54.9 56.3-4.5 4.1-8.1 8.2-8.1 9 0 .9 1.1 5 2.5 9.1 2.9 8.3 6.4 20.1 7.1 23.9.2 1.4.9 3.6 1.4 5 .7 2.1 3.2 13 3.4 15.2.2 1.6 1.6 1.9 2.9.7.8-.8 4-3.7 7.1-6.4 7.5-6.5 9-7.8 21.6-19.4 11.3-10.3 52.2-51.1 51.4-51.1-.3 0 1.3-1.8 3.5-4 2.3-2.3 4.1-4.3 4.1-4.5 0-.3.8-1.3 1.8-2.3 1.8-1.9 7.5-8.5 12.9-14.9 3.5-4.2 11-13.9 13.3-17.3.8-1.2 2.3-3.1 3.3-4.2.9-1.2 1.7-2.5 1.7-2.9 0-.4.6-1.4 1.3-2.1 2.4-2.3 8.7-12.2 8.7-13.5 0-.7.4-1.3.9-1.3 1.2 0 14.6-27 17.5-35.5 5.2-14.8 6-19.8 6-35.5 0-12.7-1.9-20.4-7.6-31.2-3.1-5.9-12.7-16.7-18.8-21.1-8.4-6.1-25.3-12.8-38-15.1-1.4-.2-3.6-.7-5-1-14.4-3.2-54.1-2.3-79.9 1.9-1.3.2-4.5.7-7 1.1-2.5.4-5.5.9-6.6 1.1-1.1.2-3.5.6-5.3.8-1.8.2-4.2.7-5.2 1-1 .3-2.9.8-4.2 1-1.3.3-3.6.8-5.3 1.1-1.6.4-3.9.8-5 1-1.1.2-4.9 1-8.5 1.9l-8 2c-1.4.3-8.6 2.1-12 2.9-3.5.9-16.9 4.6-21.7 6.1-2.9.8-7.4 2.1-10 2.9-23.8 6.8-92.1 30.7-107.8 37.6-1.1.5-4.9 2.1-8.5 3.5-3.6 1.4-7.3 3-8.2 3.5-1 .6-2.3 1-2.9 1-.5 0-3.6 1.2-6.7 2.6-3.1 1.5-6.1 2.7-6.7 2.9-1.1.2-6.9 2.7-12.2 5.1-1.7.8-3.3 1.4-3.6 1.4-.3 0-3.4 1.3-6.9 2.9-6.9 3.1-10 4.4-10.9 4.5-.3.1-2.1.9-4 1.8s-5.6 2.6-8.4 3.9c-18.1 7.9-23.5 10.3-27.5 12.2-2.5 1.1-4.7 2.2-5 2.2-.3.1-4.4 2-9.2 4.3-4.9 2.3-12.7 6.1-17.5 8.4-4.9 2.3-9 4.2-9.3 4.3-.3 0-11.2 5.3-24.3 11.8-13.1 6.4-24 11.7-24.3 11.7-.3 0-1.8.9-3.3 1.9-1.5 1.1-3.4 2.1-4.2 2.3-.8.2-1.6.5-1.9.8-.3.3-5.3 3-11.2 6-14.6 7.4-22 11.3-37.1 19.3-7 3.7-14.2 7.6-15.9 8.5-1.8.9-3.8 2.3-4.6 3-.7.7-1.7 1-2.2.7-.5-.3-1-.1-1.2.3-.1.5-5 3.4-10.8 6.6-16.5 9-21.3 11.7-24 13.4-1.4.9-2.7 1.7-3 1.7-.3 0-2.1 1-4 2.1-3.4 2.1-25.4 14.9-31.6 18.4-1.7 1-6.2 3.7-9.9 5.9-3.7 2.3-7.1 3.9-7.4 3.5-.3-.3-.6-46.5-.6-102.6 0-89.7.2-102.1 1.5-102.8 1.6-.8 19.3-6.9 22-7.5 5.3-1.3 19.8-4.9 21-5.3.8-.3 2.2-.6 3-.7.8-.2 4-.8 7-1.4 8.2-1.7 9.1-1.8 14.5-2.5 2.8-.4 6.6-.9 8.5-1.2 14.4-2.1 25.6-2.8 47-2.8 30.8 0 42 1.1 78.5 8 6 1.1 32.5 8.8 41.1 11.9 5.4 2 10.5 3.7 11.2 3.7.6.1 1.2.6 1.2 1.1 0 .6.3.8.6.5.5-.6 4.3 1 20.2 8.3 7 3.2 7.5 3.3 10 2 3.5-1.9 22.4-9.9 26.2-11.2 7.4-2.4 31.5-12.9 31.8-13.8.2-.6-.5-1.4-1.5-1.8-1-.3-2.9-1.4-4.3-2.3-3.9-2.7-16.5-9.6-27.4-15-5.4-2.7-10.5-5.5-11.2-6.1-.8-.6-1.4-.9-1.4-.6 0 .3-2.8-.8-6.2-2.5-3.5-1.7-6.7-3.1-7.3-3.3-.5-.1-2.2-.7-3.7-1.3-1.6-.7-4-1.7-5.5-2.4-1.6-.6-3.2-1.2-3.8-1.4-.5-.1-3.4-1.2-6.2-2.3-2.9-1.2-5.3-1.8-5.3-1.5 0 .4-.6.2-1.2-.3-.7-.6-4.7-2-8.8-3.3-4.1-1.2-8.2-2.5-9-2.8-.8-.3-1.7-.6-2-.6-.3-.1-1.1-.5-1.7-.9-.7-.5-1.3-.6-1.3-.3 0 .2-1.5 0-3.2-.5-1.8-.6-4.1-1.2-5-1.5-3.2-.8-6.3-1.5-8.3-1.9-1.1-.3-3.1-.7-4.5-1.1-4.6-1-16.5-3.5-19.5-4-15.6-2.5-18-2.8-20.7-2.8-1.6-.1-2.8-.3-2.8-.6s-2.6-.6-5.8-.8c-3.1-.1-6.8-.5-8.2-.8-2.6-.6-57.6-1.5-58.2-.9zm-154.4 276c0 97-.3 176.7-.7 177.1-.3.3-1.9-.3-3.5-1.5-1.6-1.1-4-2.5-5.3-3.1-1.3-.6-3.7-1.9-5.4-3-1.6-1-4.1-2.5-5.5-3.3-1.4-.7-4.3-2.4-6.5-3.7-2.2-1.2-6-3.4-8.5-4.8-2.5-1.3-4.9-2.8-5.5-3.2-.5-.4-3-1.9-5.5-3.2-8.9-5-31.6-18.1-34-19.6-1.4-.9-2.8-1.5-3.2-1.4-.5.1-.8-.2-.8-.7 0-.5-.8-1.1-1.7-1.4-2.1-.7-9.7-5-11.5-6.5-.7-.5-2.9-1.9-4.8-2.9-1.9-1.1-5.7-3.2-8.5-4.8-2.7-1.6-6.1-3.4-7.5-4.2-1.4-.8-4.3-2.5-6.5-3.9-2.2-1.3-4.7-2.7-5.5-3.1-.8-.4-3.1-1.6-5-2.8-1.9-1.2-5.5-3.3-8-4.7-2.5-1.4-10.1-5.8-17-9.8-6.9-4-13.7-7.9-15.2-8.7-3.1-1.6-3.3-2.9-1.7-8.8.6-2.2 1.2-4.9 1.4-6 .1-1.1 1-5.2 2-9 .9-3.9 1.8-7.7 2-8.5.2-.8.4-1.5.5-1.5.1 0 .3-1 .6-2.3.7-4.1 10.1-31.5 13.9-40.7 4.1-9.8 13.6-29.5 18.8-39 5.6-10 18.9-30.8 20.8-32.5.3-.3 2-2.6 3.7-5.2 1.8-2.5 3.8-5.2 4.4-6 .7-.7 3.1-3.6 5.3-6.3 6.8-8.5 8.6-10.5 22.2-24.4 13.7-14.1 24.2-23.4 37.2-33.4 4.2-3.1 8.5-6.4 9.6-7.3 4.5-3.5 33.2-22.1 34.5-22.3.3-.1.5 79.3.4 176.4zm435.4-115.6c16.2 16.5 29.2 32.5 42 51.6 4.8 7.1 8.7 13.2 8.7 13.5 0 .3.8 1.6 1.7 3 4.5 6.9 21.7 40.5 22.2 43.4.1.6.9 2.7 1.8 4.6.9 1.9 2.1 5.1 2.8 7 .7 1.9 1.6 4.4 2.1 5.5 1.6 4 6.8 19.5 7.2 21.7.2 1.3.7 3 1 3.8 1.1 2.7 4 13.4 4.2 15.5.1 1.1.5 2.7.8 3.5.3.8.9 3.3 1.3 5.5s.8 4.4 1 5c.2 1.2 2.1 11.7 2.8 16 2 11.5 3.7 33.3 4 48.7l.2 8.8-5.5-3.2c-3.1-1.7-6.9-3.9-8.6-4.9-4.4-2.6-20.9-12.1-26.7-15.3-2-1.2-7.3-4.2-11.7-6.9-4.4-2.6-8.5-4.7-9.1-4.7-.5 0-1-.4-1-.8s-1.2-1.3-2.7-1.9c-1.6-.7-3.5-1.7-4.3-2.3-1.9-1.3-47-27.4-49-28.3-.8-.4-2.8-1.5-4.5-2.6-1.6-1-12-7-23-13.3-11-6.4-21.6-12.5-23.5-13.7-1.9-1.1-4.2-2.4-5-2.8-.7-.4-4.2-2.4-7.7-4.5-3.4-2.1-6.5-3.8-6.8-3.8-.3 0-2.4-1.1-4.6-2.6-2.2-1.4-5.5-3.3-7.2-4.3-1.8-1-7.7-4.4-13.2-7.6-5.5-3.2-11.8-6.8-14-8-2.2-1.3-10.7-6.2-18.8-10.9-8.2-4.7-15.2-8.6-15.8-8.6-.5 0-.9-.3-.9-.8 0-.4-2.1-1.8-4.7-3.1-2.7-1.4-5.6-3.2-6.7-4-1-.9-2.1-1.6-2.5-1.5-.3.1-2.2-.9-4.1-2.1-2-1.3-5.8-3.5-8.5-5-7.6-4.1-14.3-7.9-15-8.6-.3-.4.9-1.2 2.7-2 1.8-.7 3.5-1.5 3.8-1.8 1.1-1.3 59.9-30.2 77.5-38.1 2.8-1.2 8.5-4 12.8-6.1 4.2-2.1 7.7-3.5 7.7-3.2 0 .3.6.1 1.3-.5.6-.5 7.1-3.6 14.2-6.7 14-6.2 17.9-7.9 26.8-11.9 3.2-1.4 6-2.6 6.2-2.6.2 0 2.8-1.1 5.7-2.4 7.9-3.6 18.3-7.6 19.6-7.6.7 0 1.2-.5 1.2-1 0-.6.8-1 1.8-1 .9-.1 3.3-.9 5.2-1.9 1.9-1.1 4.3-1.9 5.3-2 .9-.1 5.2 3.4 9.5 7.8zM613.7 467c5.7 3.3 10.8 6 11.3 6 .6 0 1 .3 1 .7 0 .5 1 1.3 2.3 1.8 4.6 2.2 11.2 6 11.5 6.7.2.5.8.8 1.3.8.4 0 6.8 3.5 14.1 7.7s14.8 8.4 16.6 9.2c1.7.8 3.2 1.9 3.2 2.3 0 .4.4.8 1 .8.5 0 9 4.6 18.7 10.2 9.8 5.6 19.8 11.3 22.3 12.7 2.5 1.4 5.4 3.1 6.5 3.8 1.9 1.1 1.9 3 2 71.3 0 38.6-.2 70.5-.5 71-.8 1.2-25.6 16-26.9 16-.6 0-1.1.4-1.1.8s-6.2 4.3-13.7 8.7c-7.6 4.3-13.9 8.3-14.1 8.7-.2.4-.8.8-1.3.8s-3.9 1.8-7.5 4-6.8 4-7.1 4c-.2 0-3.7 1.9-7.6 4.2-4 2.3-7.4 4.1-7.7 4.1-.3 0-1.6.7-3 1.7-2.2 1.5-9.8 5.8-28.3 15.9l-5.8 3.2-4.2-2.4c-4.2-2.4-5.4-3.1-19-10.9-4-2.2-9-5-11.2-6.2-2.2-1.1-4.1-2.4-4.3-2.9-.2-.4-.7-.7-1.1-.7-.4 0-7.9-4.1-16.7-9.1-8.7-5-18.4-10.5-21.4-12.1-3-1.7-9.8-5.6-15-8.6-5.2-3.1-9.7-5.7-10-5.7-.3 0-2.1-1-4-2.2-1.9-1.1-5.1-3-7-4-1.9-1.1-5.1-2.9-7-4.1l-3.5-2.1V531.7l21.5-12.9c11.8-7.2 23.3-14 25.5-15.2 6.8-3.9 19.9-11.6 21.5-12.6.8-.6 2.2-1.3 3-1.7.8-.4 5.2-2.9 9.8-5.5 4.6-2.6 8.8-4.8 9.3-4.8s.9-.5.9-1c0-.6.4-1 1-1 .5 0 7.8-3.8 16.2-8.5 8.4-4.7 15.9-8.3 16.7-8 .8.3 6.1 3.3 11.8 6.5zM785 565c1.4.9 3.2 2 4 2.3.8.4 3.3 1.8 5.5 3.2 2.2 1.4 4.7 2.8 5.5 3.2.8.4 3.8 2 6.5 3.6 17.1 10.1 30.6 17.7 31.5 17.7.5 0 1 .3 1 .8 0 .4 2.1 1.8 4.8 3.2 2.6 1.3 4.9 2.7 5.2 3 .3.3 3 1.8 6 3.4 3 1.6 5.7 3.2 6 3.5.3.3 3 1.9 6 3.5s6.2 3.5 7.1 4.2c.9.8 1.9 1.1 2.2.7.4-.3.7-.1.7.5 0 .7.6 1.2 1.4 1.2.8 0 1.6.3 1.8.7.2.5 1.9 1.6 3.8 2.5 1.9 1 6.4 3.5 10 5.7 3.6 2.2 8.1 4.8 10 5.9 9.2 5.1 11.6 6.5 12.5 7.2.6.4 3.1 1.9 5.8 3.4 10.8 6 14.4 8 17.9 10.3 2.1 1.2 4.2 2.3 4.7 2.3s1.1.3 1.3.7c.2.5 2.6 2 5.3 3.5 5.8 3.1 5.9 3.7 3.2 15.8-1 4.1-1.9 8.4-2.2 9.5-.2 1.1-1.2 4.7-2.1 8-.9 3.3-1.7 6.4-1.8 7-.7 3.2-7 22.2-7.7 23.1-.5.6-1 1.9-1.2 3-.2 1-1 3.2-1.6 4.9-.7 1.6-1.9 4.6-2.6 6.5-3.3 9-17.4 37.8-21.6 44-.5.8-1.2 2.3-1.5 3.2-.4 1-1 1.8-1.5 1.8s-.9.5-.9 1c0 .9-6.8 11.6-13.7 21.5-3.9 5.5-13.7 18.4-16.8 22-1.4 1.6-4.5 5.2-6.8 7.9-8 9.2-27.3 28.1-36.8 36.1-13.4 11.1-30.2 23.5-31.8 23.5-.6 0-1.1.4-1.1.8s-2.8 2.5-6.2 4.6c-3.5 2-8.8 5.2-11.8 7.1-4.2 2.5-5.6 3-6 2-.4-1.1-.5-351.3-.1-352.2.2-.5 3.7 1.1 6.1 2.7zm-543.4 33.9c.5.5 2.9 2 5.4 3.3 2.5 1.4 8.6 4.9 13.5 7.8 5 2.9 11 6.4 13.5 7.8 2.5 1.3 5 2.8 5.5 3.2.6.4 3 1.9 5.5 3.2 4.6 2.5 9.3 5.3 15.3 8.7 1.7 1 10.2 5.9 18.7 10.8s21.1 12.2 28 16.1c6.9 4 13.2 7.6 14 8.2.8.5 3.8 2.2 6.5 3.8 10.1 5.7 12.4 7.1 16.4 9.6 2.2 1.5 4.2 2.6 4.5 2.6.2 0 6.6 3.6 14.2 8.1 7.7 4.4 15.7 9.1 17.9 10.4 7.9 4.4 12 6.8 15 8.6 1.7 1 5.3 3 8 4.4 2.8 1.5 5.7 3.3 6.6 4.1.8.8 1.8 1.4 2.2 1.4.5 0 17.8 9.9 49.9 28.6 7 4.1 13.2 7.4 13.8 7.4.5 0 1 .4 1 1 0 .5.4 1 1 1 .5 0 3.9 1.8 7.5 4s6.8 4 7.1 4c.3 0 2.5 1.3 4.8 2.8 2.2 1.5 5 3.2 6.1 3.6 1.6.6.2 1.7-8 5.8-5.5 2.8-10.2 5-10.4 4.8-.2-.1-.7.2-1 .7-.8 1.1-21.4 11.3-22.9 11.3-.7 0-1.2.4-1.2 1 0 .5-.4 1-1 1-1.3 0-16.6 7.4-18.5 9-.8.7-1.5 1-1.5.7 0-.4-4 1.4-9 3.8-4.9 2.5-9.2 4.5-9.4 4.5-.3 0-4.5 1.9-9.3 4.2-4.9 2.4-9 4.3-9.3 4.3-.3.1-2.5 1.1-5 2.4-2.5 1.3-4.6 2.3-4.7 2.3-.2-.1-2.7.9-5.5 2.2-18.7 8.6-29.7 13.3-30.2 12.8-.3-.3-.6 0-.6.6 0 .7-.6 1.2-1.4 1.2-.8 0-4.3 1.3-7.8 2.9-9.3 4.2-18.2 7.6-19 7.3-.5-.1-.8.2-.8.7 0 .5-1.2 1.2-2.7 1.6-1.5.3-4.6 1.5-7 2.6-2.3 1-4.6 1.9-5.2 1.9-.8 0-10.6-9.5-18.7-18.2-7.5-8-25.3-31.2-32.6-42.2-4.3-6.7-8.3-12.8-8.9-13.6-5.8-8.8-22.9-42.8-22.9-45.5 0-.8-.5-1.5-1.1-1.5-.5 0-.8-.4-.5-.9.3-.4-.1-1.7-.9-2.7-.8-1-1.5-2.8-1.5-3.9 0-1.2-.4-2.5-.9-3-.8-.9-5.7-13.8-6.6-17.5-.2-.8-.4-1.6-.5-1.8-.2-.1-.3-.5-.4-1-.1-.4-1-3.4-2-6.7-1-3.3-2-6.7-2.2-7.5-.2-.8-1.5-5.8-2.8-11.1-2.3-8.9-4.3-18.6-5.1-24.9-.2-1.4-.4-2.5-.5-2.5-.2 0-.7-3-1.4-9-.2-2.2-.7-5.4-1-7-1.6-8.8-2.9-44.5-1.7-44.5.4 0 1.1.4 1.7.9z"/></svg>