<?xml version="1.0" encoding="UTF-8"?>
<svg width="741px" height="363px" viewBox="0 0 741 363" version="1.1" xmlns="http://www.w3.org/2000/svg" xmlns:xlink="http://www.w3.org/1999/xlink">
    <title>Group</title>
    <defs>
        <polygon id="path-1" points="0.06 0.781 740.375 0.781 740.375 363 0.06 363"></polygon>
    </defs>
    <g id="Page-1" stroke="none" stroke-width="1" fill="none" fill-rule="evenodd">
        <g id="Group">
            <g id="Group-3">
                <mask id="mask-2" fill="white">
                    <use xlink:href="#path-1"></use>
                </mask>
                <g id="Clip-2"></g>
                <path d="M698.063,0.781 L42.297,0.781 C18.969,0.781 0,19.765 0,43.094 L0,320.695 C0,344.023 18.969,363 42.297,363 L698.063,363 C721.391,363 740.375,344.023 740.375,320.695 L740.375,43.094 C740.375,19.765 721.391,0.781 698.063,0.781" id="Fill-1" fill="#E6B91E" mask="url(#mask-2)"></path>
            </g>
            <polygon id="Fill-4" fill="#010101" points="106.602 288.75 161.391 288.75 161.391 77.492 106.602 77.492"></polygon>
            <path d="M278.328,77.492 L265.633,176.211 L257.844,122.554 C255.492,105.351 253.344,90.297 251.195,77.492 L180.125,77.492 L180.125,288.75 L228.148,288.75 L228.359,149.281 L248.531,288.75 L282.734,288.75 L301.984,146.211 L302.086,288.75 L350,288.75 L350,77.492 L278.328,77.492" id="Fill-5" fill="#010101"></path>
            <path d="M435.719,115.594 C437.859,116.82 439.305,118.773 439.922,121.531 C440.531,124.195 440.844,130.336 440.844,139.859 L440.844,221.672 C440.844,235.812 439.922,244.414 438.07,247.594 C436.234,250.765 431.422,252.297 423.531,252.297 L423.531,113.656 C429.469,113.656 433.563,114.265 435.719,115.594 Z M435.203,288.75 C448.313,288.75 458.141,288.031 464.703,286.601 C471.141,285.172 476.68,282.711 481.078,279.023 C485.484,275.429 488.664,270.422 490.398,264.07 C492.242,257.726 493.266,245.031 493.266,226.086 L493.266,151.945 C493.266,131.976 492.445,118.562 491.32,111.703 C490.094,104.945 487.023,98.695 482.102,93.172 C477.289,87.633 470.125,83.64 460.805,81.195 C451.484,78.734 436.125,77.492 409.602,77.492 L368.742,77.492 L368.742,288.75 L435.203,288.75 L435.203,288.75 Z" id="Fill-6" fill="#010101"></path>
            <path d="M583.281,237.554 C583.281,247.695 582.766,254.242 581.742,256.906 C580.719,259.57 576.313,260.89 572.93,260.89 C569.664,260.89 567.5,259.672 566.383,257.015 C565.359,254.453 564.742,248.515 564.742,239.195 L564.742,183.383 C564.742,173.75 565.25,167.812 566.18,165.351 C567.203,163 569.352,161.773 572.523,161.773 C575.898,161.773 580.398,163.211 581.539,165.875 C582.664,168.633 583.281,174.476 583.281,183.383 L583.281,237.554 Z M511.898,77.492 L511.898,288.75 L561.266,288.75 L564.742,275.336 C569.141,280.765 574.063,284.75 579.484,287.523 C584.922,290.179 592.898,291.515 599.141,291.515 C607.75,291.515 615.32,289.265 621.57,284.656 C627.922,280.156 631.922,274.726 633.563,268.57 C635.305,262.336 636.125,252.914 636.125,240.312 L636.125,181.031 C636.125,168.234 635.914,159.929 635.305,156.047 C634.781,152.156 633.039,148.156 630.281,144.054 C627.414,139.961 623.422,136.797 618.094,134.531 C612.664,132.281 606.422,131.156 599.141,131.156 C592.898,131.156 584.813,132.39 579.383,134.953 C574.063,137.406 569.141,141.195 564.742,146.211 L564.742,77.492 L511.898,77.492 L511.898,77.492 Z" id="Fill-7" fill="#010101"></path>
        </g>
    </g>
</svg>